<svg xmlns="http://www.w3.org/2000/svg" width="20" height="20" viewBox="0 0 20 20">
    <g fill="none" fill-rule="evenodd">
        <g fill="#B3B3B3" fill-rule="nonzero">
            <g>
                <g>
                    <g>
                        <g>
                            <path d="M10 0C4.48 0 0 4.48 0 10s4.48 10 10 10 10-4.48 10-10S15.52 0 10 0zm0 14.5c-2.49 0-4.5-2.01-4.5-4.5S7.51 5.5 10 5.5s4.5 2.01 4.5 4.5-2.01 4.5-4.5 4.5zM10 9c-.55 0-1 .45-1 1s.45 1 1 1 1-.45 1-1-.45-1-1-1z" transform="translate(-48 -197) translate(0 96) translate(48 101)"/>
                        </g>
                    </g>
                </g>
            </g>
        </g>
    </g>
</svg>
