<svg xmlns="http://www.w3.org/2000/svg" width="20" height="19" viewBox="0 0 20 19">
    <g fill="none" fill-rule="evenodd">
        <g fill="#FFF">
            <g>
                <g>
                    <path d="M10.38 19H1.071C.48 19 0 18.53 0 17.951V1.05C0 .469.48 0 1.072 0H18.36c.593 0 1.073.47 1.073 1.049V17.95c0 .58-.48 1.049-1.073 1.049h-4.951v-7.358h2.525l.379-2.867h-2.904V6.944c0-.83.235-1.396 1.453-1.396h1.553V2.982c-.269-.035-1.19-.113-2.263-.113-2.239 0-3.772 1.336-3.772 3.79v2.115H7.847v2.867h2.532V19z" transform="translate(-48 -635) translate(48 635)"/>
                </g>
            </g>
        </g>
    </g>
</svg>
