<svg xmlns="http://www.w3.org/2000/svg" width="20" height="19" viewBox="0 0 20 19">
    <g fill="none" fill-rule="evenodd">
        <g fill="#FFF">
            <g>
                <g>
                    <g>
                        <path d="M9.716 0c2.639 0 2.97.01 4.006.057 1.034.046 1.74.207 2.358.442.64.242 1.18.567 1.721 1.095.54.529.872 1.058 1.12 1.683.24.604.405 1.295.452 2.306.048 1.013.059 1.337.059 3.917s-.011 2.904-.059 3.917c-.047 1.011-.211 1.702-.451 2.306-.249.625-.58 1.154-1.12 1.683-.541.528-1.083.853-1.722 1.095-.618.235-1.324.396-2.358.442-1.037.046-1.367.057-4.006.057-2.639 0-2.97-.01-4.006-.057-1.034-.046-1.74-.207-2.358-.442-.64-.242-1.181-.567-1.721-1.095-.54-.529-.873-1.058-1.12-1.683-.241-.604-.405-1.295-.453-2.306C.011 12.404 0 12.08 0 9.5s.011-2.904.058-3.917C.106 4.572.27 3.881.51 3.277c.248-.625.58-1.154 1.12-1.683C2.17 1.066 2.714.741 3.353.5 3.97.264 4.676.103 5.71.057 6.746.011 7.077 0 9.716 0zm0 1.712c-2.594 0-2.902.01-3.926.055-.947.042-1.462.197-1.804.327-.454.173-.777.378-1.117.71-.34.333-.55.65-.727 1.093-.133.335-.292.838-.335 1.764-.046 1.002-.056 1.302-.056 3.839s.01 2.837.056 3.839c.043.926.202 1.43.335 1.764.176.443.387.76.727 1.092.34.333.663.538 1.117.71.342.13.857.286 1.804.328 1.024.046 1.331.055 3.926.055 2.594 0 2.902-.01 3.926-.055.947-.042 1.462-.197 1.804-.327.454-.173.777-.378 1.117-.71.34-.333.55-.65.727-1.093.133-.335.291-.838.335-1.764.046-1.002.056-1.302.056-3.839s-.01-2.837-.056-3.839c-.044-.926-.202-1.43-.335-1.764-.176-.443-.387-.76-.727-1.092-.34-.333-.663-.538-1.117-.71-.342-.13-.857-.286-1.804-.328-1.025-.046-1.332-.055-3.926-.055zm0 2.91c2.755 0 4.99 2.184 4.99 4.878s-2.235 4.878-4.99 4.878c-2.756 0-4.99-2.184-4.99-4.878s2.234-4.878 4.99-4.878zm0 8.045c1.789 0 3.239-1.418 3.239-3.167 0-1.749-1.45-3.167-3.24-3.167-1.788 0-3.238 1.418-3.238 3.167 0 1.749 1.45 3.167 3.239 3.167zm6.352-8.238c0 .63-.522 1.14-1.166 1.14-.644 0-1.166-.51-1.166-1.14 0-.63.522-1.14 1.166-1.14.644 0 1.166.51 1.166 1.14z" transform="translate(-172 -635) translate(48 635) translate(124)"/>
                    </g>
                </g>
            </g>
        </g>
    </g>
</svg>
