<svg xmlns="http://www.w3.org/2000/svg" width="22" height="22" viewBox="0 0 22 22">
    <g fill="none" fill-rule="evenodd">
        <g fill="#F24405" fill-rule="nonzero" stroke="#F24405" stroke-width=".2">
            <g>
                <g>
                    <g>
                        <path d="M19.98 10.462l.009-.008c.012-.016.024-.028.032-.045.004-.004.004-.008.008-.012.008-.016.02-.033.029-.05 0-.003.004-.007.004-.007l.024-.053c0-.005 0-.005.004-.009.009-.016.013-.036.02-.057 0-.004 0-.008.005-.008.004-.02.012-.037.012-.057 0-.009 0-.013.004-.02.004-.017.004-.034.008-.05.004-.024.004-.045.004-.07 0-.024 0-.044-.004-.069 0-.016-.004-.033-.008-.049 0-.008 0-.012-.004-.02l-.012-.058c0-.004 0-.008-.004-.008-.004-.02-.012-.037-.02-.057 0-.004 0-.004-.005-.008l-.024-.054c0-.004-.004-.008-.004-.008-.008-.016-.016-.032-.029-.049-.004-.004-.004-.008-.008-.012-.012-.016-.02-.033-.032-.045l-.009-.008c-.016-.017-.028-.037-.048-.053l-4.03-4.041c-.272-.274-.716-.274-.989 0s-.273.72 0 .993l2.835 2.847H6.477c-.387 0-.7.315-.7.7 0 .388.313.703.7.703h11.275l-2.815 2.826c-.272.274-.272.72 0 .994.135.135.314.205.493.205.18 0 .359-.07.493-.205l4.004-4.02c.02-.025.037-.041.053-.058z" transform="translate(-37 -815) translate(-1.184) translate(39.184 815.919)"/>
                        <path d="M3.817 1.403H9.03c.387 0 .7-.315.7-.7 0-.388-.313-.703-.7-.703H3.817C1.727 0 .024 1.71.024 3.808v12.421c0 2.099 1.703 3.808 3.793 3.808h5.128c.387 0 .701-.315.701-.7 0-.388-.314-.703-.7-.703h-5.13c-1.319 0-2.394-1.08-2.394-2.405V3.808c.004-1.33 1.075-2.405 2.395-2.405z" transform="translate(-37 -815) translate(-1.184) translate(39.184 815.919)"/>
                    </g>
                </g>
            </g>
        </g>
    </g>
</svg>
