<svg xmlns="http://www.w3.org/2000/svg" width="22" height="22" viewBox="0 0 22 22">
    <g fill="none" fill-rule="evenodd">
        <g fill="#F24405" fill-rule="nonzero" stroke="#F24405" stroke-width=".2">
            <g>
                <g>
                    <g>
                        <path d="M19.98 10.42l.009-.008c.012-.016.024-.029.032-.045.004-.004.004-.008.008-.012.008-.016.02-.033.029-.05 0-.003.004-.007.004-.007l.024-.053c0-.004 0-.004.004-.008.009-.017.013-.037.02-.057 0-.004 0-.009.005-.009.004-.02.012-.036.012-.057 0-.008 0-.012.004-.02.004-.016.004-.032.008-.049.004-.024.004-.045.004-.069 0-.024 0-.045-.004-.07 0-.016-.004-.032-.008-.048 0-.008 0-.012-.004-.02l-.012-.058c0-.004 0-.008-.004-.008-.004-.02-.012-.036-.02-.057 0-.004 0-.004-.005-.008l-.024-.053c0-.004-.004-.008-.004-.008-.008-.016-.016-.033-.029-.049-.004-.004-.004-.008-.008-.012-.012-.016-.02-.033-.032-.045l-.009-.008c-.016-.016-.028-.037-.048-.053l-4.03-4.025c-.272-.273-.716-.273-.989 0s-.273.717 0 .99l2.835 2.835H6.477c-.387 0-.7.314-.7.697 0 .387.313.7.7.7h11.275l-2.815 2.815c-.272.273-.272.717 0 .99.135.135.314.204.493.204.18 0 .359-.07.493-.204l4.004-4.004c.02-.024.037-.04.053-.057z" transform="translate(-204 -812) matrix(-1 0 0 1 225 813)"/>
                        <path d="M3.817 1.397H9.03c.387 0 .7-.313.7-.696 0-.387-.313-.701-.7-.701H3.817C1.727 0 .024 1.703.024 3.792v12.372c0 2.09 1.703 3.792 3.793 3.792h5.128c.387 0 .701-.314.701-.697 0-.387-.314-.7-.7-.7h-5.13c-1.319 0-2.394-1.076-2.394-2.395V3.792c.004-1.323 1.075-2.395 2.395-2.395z" transform="translate(-204 -812) matrix(-1 0 0 1 225 813)"/>
                    </g>
                </g>
            </g>
        </g>
    </g>
</svg>
