<svg xmlns="http://www.w3.org/2000/svg" width="20" height="20" viewBox="0 0 20 20">
    <g fill="none" fill-rule="evenodd" stroke-linecap="square" opacity=".8">
        <g stroke="#B3B3B3" stroke-width="2">
            <g>
                <g>
                    <g>
                        <g transform="translate(-47 -244) translate(0 96) translate(48 148) translate(0 1)">
                            <circle cx="9" cy="9" r="2.455"/>
                            <path d="M15.545 9c0-.471-.052-.941-.153-1.402l2.22-1.68-1.636-2.835-2.572 1.085c-.696-.639-1.523-1.118-2.422-1.407L10.636 0H7.364l-.346 2.761c-.9.289-1.726.768-2.422 1.407L2.024 3.083.388 5.917l2.22 1.681c-.205.924-.205 1.88 0 2.804l-2.22 1.68 1.636 2.835 2.572-1.085c.696.639 1.523 1.118 2.422 1.407L7.364 18h3.272l.346-2.761c.9-.289 1.726-.768 2.422-1.407l2.572 1.085 1.636-2.834-2.22-1.681c.1-.46.152-.93.153-1.402z"/>
                        </g>
                    </g>
                </g>
            </g>
        </g>
    </g>
</svg>
