<svg xmlns="http://www.w3.org/2000/svg" width="20" height="20" viewBox="0 0 20 20">
    <g fill="none" fill-rule="evenodd">
        <g fill="#FFF" fill-rule="nonzero">
            <g>
                <g>
                    <path d="M8 0C3.582 0 0 3.582 0 8s3.582 8 8 8c1.778.002 3.505-.597 4.9-1.7l5.3 5.3.1.1c.42.281.982.206 1.313-.175.33-.382.325-.95-.013-1.325l-5.3-5.3c1.133-1.378 1.736-3.116 1.7-4.9 0-4.418-3.582-8-8-8zm0 14c-3.314 0-6-2.686-6-6s2.686-6 6-6 6 2.686 6 6c0 1.591-.632 3.117-1.757 4.243C11.117 13.368 9.59 14 8 14z" transform="translate(-289 -32) translate(240 32) translate(49)"/>
                </g>
            </g>
        </g>
    </g>
</svg>
