<svg xmlns="http://www.w3.org/2000/svg" width="27" height="19" viewBox="0 0 27 19">
    <g fill="none" fill-rule="evenodd">
        <g fill="#FFF">
            <g>
                <g>
                    <g>
                        <path d="M3.753.306S7.005 0 13.279 0c6.275 0 9.252.306 9.252.306s2.283.08 3.175 1.812c0 0 .892 1.256.892 7.382 0 0 .054 3.792-.37 5.808-.422 2.017-1.355 2.605-1.355 2.605s-.6.59-1.92.75c-1.32.16-5.604.337-9.674.337 0 0-7.45-.004-9.96-.425-2.51-.42-2.862-2.794-2.862-2.794s-1.028-6.01 0-12.555c0 0 .297-2.614 3.296-2.92zm14.135 9.046l-7.422-3.654v7.307l7.422-3.653z" transform="translate(-106 -635) translate(48 635) translate(58)"/>
                    </g>
                </g>
            </g>
        </g>
    </g>
</svg>
